<svg width="529" height="241" viewBox="0 0 529 241" fill="none" xmlns="http://www.w3.org/2000/svg">
<rect width="529" height="241" rx="8" fill="white"/>
<rect y="48" width="518" height="56" fill="#F5F5F5"/>
<rect x="6" y="79" width="135" height="17" rx="8" fill="url(#paint0_linear)"/>
<rect x="380" y="56" width="54" height="17" rx="8" fill="url(#paint1_linear)"/>
<rect x="6" y="56" width="169" height="17" rx="8" fill="url(#paint2_linear)"/>
<rect x="193" y="56" width="169" height="17" rx="8" fill="url(#paint3_linear)"/>
<rect x="157" y="80" width="169" height="17" rx="8" fill="url(#paint4_linear)"/>
<rect x="442" y="80" width="67" height="16" rx="8" fill="url(#paint5_linear)"/>
<rect y="112" width="518" height="56" fill="#F5F5F5"/>
<rect x="6" y="143" width="225" height="17" rx="8" fill="url(#paint6_linear)"/>
<rect x="294" y="120" width="114" height="17" rx="8" fill="url(#paint7_linear)"/>
<rect x="6" y="120" width="87" height="17" rx="8" fill="url(#paint8_linear)"/>
<rect x="109" y="120" width="169" height="17" rx="8" fill="url(#paint9_linear)"/>
<rect x="442" y="144" width="67" height="16" rx="8" fill="url(#paint10_linear)"/>
<rect y="176" width="518" height="56" fill="#F5F5F5"/>
<rect x="6" y="207" width="225" height="17" rx="8" fill="url(#paint11_linear)"/>
<rect x="294" y="184" width="114" height="17" rx="8" fill="url(#paint12_linear)"/>
<rect x="6" y="184" width="87" height="17" rx="8" fill="url(#paint13_linear)"/>
<rect x="109" y="184" width="169" height="17" rx="8" fill="url(#paint14_linear)"/>
<rect x="442" y="208" width="67" height="16" rx="8" fill="url(#paint15_linear)"/>
<path d="M518 35H529V233C529 237.418 525.418 241 521 241H518V35Z" fill="#EBE9E9"/>
<path d="M520 60C520 57.7909 521.791 56 524 56C526.209 56 528 57.7909 528 60V69C528 71.2091 526.209 73 524 73C521.791 73 520 71.2091 520 69V60Z" fill="#C4C4C4"/>
<rect y="35" width="529" height="3" fill="#F3F3F3"/>
<path d="M14.2383 22.0977H10.2305V29H7.96875V11.9375H13.6172C15.5391 11.9375 17.0156 12.375 18.0469 13.25C19.0859 14.125 19.6055 15.3984 19.6055 17.0703C19.6055 18.1328 19.3164 19.0586 18.7383 19.8477C18.168 20.6367 17.3711 21.2266 16.3477 21.6172L20.3555 28.8594V29H17.9414L14.2383 22.0977ZM10.2305 20.2578H13.6875C14.8047 20.2578 15.6914 19.9688 16.3477 19.3906C17.0117 18.8125 17.3438 18.0391 17.3438 17.0703C17.3438 16.0156 17.0273 15.207 16.3945 14.6445C15.7695 14.082 14.8633 13.7969 13.6758 13.7891H10.2305V20.2578ZM27.6914 29.2344C25.9727 29.2344 24.5742 28.6719 23.4961 27.5469C22.418 26.4141 21.8789 24.9023 21.8789 23.0117V22.6133C21.8789 21.3555 22.1172 20.2344 22.5938 19.25C23.0781 18.2578 23.75 17.4844 24.6094 16.9297C25.4766 16.3672 26.4141 16.0859 27.4219 16.0859C29.0703 16.0859 30.3516 16.6289 31.2656 17.7148C32.1797 18.8008 32.6367 20.3555 32.6367 22.3789V23.2812H24.0469C24.0781 24.5312 24.4414 25.543 25.1367 26.3164C25.8398 27.082 26.7305 27.4648 27.8086 27.4648C28.5742 27.4648 29.2227 27.3086 29.7539 26.9961C30.2852 26.6836 30.75 26.2695 31.1484 25.7539L32.4727 26.7852C31.4102 28.418 29.8164 29.2344 27.6914 29.2344ZM27.4219 17.8672C26.5469 17.8672 25.8125 18.1875 25.2188 18.8281C24.625 19.4609 24.2578 20.3516 24.1172 21.5H30.4688V21.3359C30.4062 20.2344 30.1094 19.3828 29.5781 18.7812C29.0469 18.1719 28.3281 17.8672 27.4219 17.8672ZM42.5391 25.6367C42.5391 25.0508 42.3164 24.5977 41.8711 24.2773C41.4336 23.9492 40.6641 23.668 39.5625 23.4336C38.4688 23.1992 37.5977 22.918 36.9492 22.5898C36.3086 22.2617 35.832 21.8711 35.5195 21.418C35.2148 20.9648 35.0625 20.4258 35.0625 19.8008C35.0625 18.7617 35.5 17.8828 36.375 17.1641C37.2578 16.4453 38.3828 16.0859 39.75 16.0859C41.1875 16.0859 42.3516 16.457 43.2422 17.1992C44.1406 17.9414 44.5898 18.8906 44.5898 20.0469H42.4102C42.4102 19.4531 42.1562 18.9414 41.6484 18.5117C41.1484 18.082 40.5156 17.8672 39.75 17.8672C38.9609 17.8672 38.3438 18.0391 37.8984 18.3828C37.4531 18.7266 37.2305 19.1758 37.2305 19.7305C37.2305 20.2539 37.4375 20.6484 37.8516 20.9141C38.2656 21.1797 39.0117 21.4336 40.0898 21.6758C41.1758 21.918 42.0547 22.207 42.7266 22.543C43.3984 22.8789 43.8945 23.2852 44.2148 23.7617C44.543 24.2305 44.707 24.8047 44.707 25.4844C44.707 26.6172 44.2539 27.5273 43.3477 28.2148C42.4414 28.8945 41.2656 29.2344 39.8203 29.2344C38.8047 29.2344 37.9062 29.0547 37.125 28.6953C36.3438 28.3359 35.7305 27.8359 35.2852 27.1953C34.8477 26.5469 34.6289 25.8477 34.6289 25.0977H36.7969C36.8359 25.8242 37.125 26.4023 37.6641 26.832C38.2109 27.2539 38.9297 27.4648 39.8203 27.4648C40.6406 27.4648 41.2969 27.3008 41.7891 26.9727C42.2891 26.6367 42.5391 26.1914 42.5391 25.6367ZM52.793 29.2344C51.0742 29.2344 49.6758 28.6719 48.5977 27.5469C47.5195 26.4141 46.9805 24.9023 46.9805 23.0117V22.6133C46.9805 21.3555 47.2188 20.2344 47.6953 19.25C48.1797 18.2578 48.8516 17.4844 49.7109 16.9297C50.5781 16.3672 51.5156 16.0859 52.5234 16.0859C54.1719 16.0859 55.4531 16.6289 56.3672 17.7148C57.2812 18.8008 57.7383 20.3555 57.7383 22.3789V23.2812H49.1484C49.1797 24.5312 49.543 25.543 50.2383 26.3164C50.9414 27.082 51.832 27.4648 52.9102 27.4648C53.6758 27.4648 54.3242 27.3086 54.8555 26.9961C55.3867 26.6836 55.8516 26.2695 56.25 25.7539L57.5742 26.7852C56.5117 28.418 54.918 29.2344 52.793 29.2344ZM52.5234 17.8672C51.6484 17.8672 50.9141 18.1875 50.3203 18.8281C49.7266 19.4609 49.3594 20.3516 49.2188 21.5H55.5703V21.3359C55.5078 20.2344 55.2109 19.3828 54.6797 18.7812C54.1484 18.1719 53.4297 17.8672 52.5234 17.8672ZM66.3867 18.2656C66.0586 18.2109 65.7031 18.1836 65.3203 18.1836C63.8984 18.1836 62.9336 18.7891 62.4258 20V29H60.2578V16.3203H62.3672L62.4023 17.7852C63.1133 16.6523 64.1211 16.0859 65.4258 16.0859C65.8477 16.0859 66.168 16.1406 66.3867 16.25V18.2656ZM72.7852 26.0586L75.9258 16.3203H78.1406L73.5938 29H71.9414L67.3477 16.3203H69.5625L72.7852 26.0586ZM87.8672 29C87.7422 28.75 87.6406 28.3047 87.5625 27.6641C86.5547 28.7109 85.3516 29.2344 83.9531 29.2344C82.7031 29.2344 81.6758 28.8828 80.8711 28.1797C80.0742 27.4688 79.6758 26.5703 79.6758 25.4844C79.6758 24.1641 80.1758 23.1406 81.1758 22.4141C82.1836 21.6797 83.5977 21.3125 85.418 21.3125H87.5273V20.3164C87.5273 19.5586 87.3008 18.957 86.8477 18.5117C86.3945 18.0586 85.7266 17.832 84.8438 17.832C84.0703 17.832 83.4219 18.0273 82.8984 18.418C82.375 18.8086 82.1133 19.2812 82.1133 19.8359H79.9336C79.9336 19.2031 80.1562 18.5938 80.6016 18.0078C81.0547 17.4141 81.6641 16.9453 82.4297 16.6016C83.2031 16.2578 84.0508 16.0859 84.9727 16.0859C86.4336 16.0859 87.5781 16.4531 88.4062 17.1875C89.2344 17.9141 89.6641 18.918 89.6953 20.1992V26.0352C89.6953 27.1992 89.8438 28.125 90.1406 28.8125V29H87.8672ZM84.2695 27.3477C84.9492 27.3477 85.5938 27.1719 86.2031 26.8203C86.8125 26.4688 87.2539 26.0117 87.5273 25.4492V22.8477H85.8281C83.1719 22.8477 81.8438 23.625 81.8438 25.1797C81.8438 25.8594 82.0703 26.3906 82.5234 26.7734C82.9766 27.1562 83.5586 27.3477 84.2695 27.3477ZM96.0352 13.25V16.3203H98.4023V17.9961H96.0352V25.8594C96.0352 26.3672 96.1406 26.75 96.3516 27.0078C96.5625 27.2578 96.9219 27.3828 97.4297 27.3828C97.6797 27.3828 98.0234 27.3359 98.4609 27.2422V29C97.8906 29.1562 97.3359 29.2344 96.7969 29.2344C95.8281 29.2344 95.0977 28.9414 94.6055 28.3555C94.1133 27.7695 93.8672 26.9375 93.8672 25.8594V17.9961H91.5586V16.3203H93.8672V13.25H96.0352ZM103.301 29H101.133V16.3203H103.301V29ZM100.957 12.957C100.957 12.6055 101.062 12.3086 101.273 12.0664C101.492 11.8242 101.812 11.7031 102.234 11.7031C102.656 11.7031 102.977 11.8242 103.195 12.0664C103.414 12.3086 103.523 12.6055 103.523 12.957C103.523 13.3086 103.414 13.6016 103.195 13.8359C102.977 14.0703 102.656 14.1875 102.234 14.1875C101.812 14.1875 101.492 14.0703 101.273 13.8359C101.062 13.6016 100.957 13.3086 100.957 12.957ZM106.207 22.543C106.207 21.3008 106.449 20.1836 106.934 19.1914C107.426 18.1992 108.105 17.4336 108.973 16.8945C109.848 16.3555 110.844 16.0859 111.961 16.0859C113.688 16.0859 115.082 16.6836 116.145 17.8789C117.215 19.0742 117.75 20.6641 117.75 22.6484V22.8008C117.75 24.0352 117.512 25.1445 117.035 26.1289C116.566 27.1055 115.891 27.8672 115.008 28.4141C114.133 28.9609 113.125 29.2344 111.984 29.2344C110.266 29.2344 108.871 28.6367 107.801 27.4414C106.738 26.2461 106.207 24.6641 106.207 22.6953V22.543ZM108.387 22.8008C108.387 24.207 108.711 25.3359 109.359 26.1875C110.016 27.0391 110.891 27.4648 111.984 27.4648C113.086 27.4648 113.961 27.0352 114.609 26.1758C115.258 25.3086 115.582 24.0977 115.582 22.543C115.582 21.1523 115.25 20.0273 114.586 19.168C113.93 18.3008 113.055 17.8672 111.961 17.8672C110.891 17.8672 110.027 18.293 109.371 19.1445C108.715 19.9961 108.387 21.2148 108.387 22.8008ZM122.52 16.3203L122.59 17.9141C123.559 16.6953 124.824 16.0859 126.387 16.0859C129.066 16.0859 130.418 17.5977 130.441 20.6211V29H128.273V20.6094C128.266 19.6953 128.055 19.0195 127.641 18.582C127.234 18.1445 126.598 17.9258 125.73 17.9258C125.027 17.9258 124.41 18.1133 123.879 18.4883C123.348 18.8633 122.934 19.3555 122.637 19.9648V29H120.469V16.3203H122.52ZM141.094 25.6367C141.094 25.0508 140.871 24.5977 140.426 24.2773C139.988 23.9492 139.219 23.668 138.117 23.4336C137.023 23.1992 136.152 22.918 135.504 22.5898C134.863 22.2617 134.387 21.8711 134.074 21.418C133.77 20.9648 133.617 20.4258 133.617 19.8008C133.617 18.7617 134.055 17.8828 134.93 17.1641C135.812 16.4453 136.938 16.0859 138.305 16.0859C139.742 16.0859 140.906 16.457 141.797 17.1992C142.695 17.9414 143.145 18.8906 143.145 20.0469H140.965C140.965 19.4531 140.711 18.9414 140.203 18.5117C139.703 18.082 139.07 17.8672 138.305 17.8672C137.516 17.8672 136.898 18.0391 136.453 18.3828C136.008 18.7266 135.785 19.1758 135.785 19.7305C135.785 20.2539 135.992 20.6484 136.406 20.9141C136.82 21.1797 137.566 21.4336 138.645 21.6758C139.73 21.918 140.609 22.207 141.281 22.543C141.953 22.8789 142.449 23.2852 142.77 23.7617C143.098 24.2305 143.262 24.8047 143.262 25.4844C143.262 26.6172 142.809 27.5273 141.902 28.2148C140.996 28.8945 139.82 29.2344 138.375 29.2344C137.359 29.2344 136.461 29.0547 135.68 28.6953C134.898 28.3359 134.285 27.8359 133.84 27.1953C133.402 26.5469 133.184 25.8477 133.184 25.0977H135.352C135.391 25.8242 135.68 26.4023 136.219 26.832C136.766 27.2539 137.484 27.4648 138.375 27.4648C139.195 27.4648 139.852 27.3008 140.344 26.9727C140.844 26.6367 141.094 26.1914 141.094 25.6367Z" fill="#B5B2B2"/>
<defs>
<linearGradient id="paint0_linear" x1="141" y1="87" x2="6" y2="87" gradientUnits="userSpaceOnUse">
<stop stop-color="#CFE3D8"/>
<stop offset="1" stop-color="#B9DAC4"/>
</linearGradient>
<linearGradient id="paint1_linear" x1="434" y1="64" x2="380" y2="64" gradientUnits="userSpaceOnUse">
<stop stop-color="#CFE3D8"/>
<stop offset="1" stop-color="#B9DAC4"/>
</linearGradient>
<linearGradient id="paint2_linear" x1="175" y1="64" x2="6" y2="64" gradientUnits="userSpaceOnUse">
<stop stop-color="#CFE3D8"/>
<stop offset="1" stop-color="#B9DAC4"/>
</linearGradient>
<linearGradient id="paint3_linear" x1="362" y1="64" x2="193" y2="64" gradientUnits="userSpaceOnUse">
<stop stop-color="#CFE3D8"/>
<stop offset="1" stop-color="#B9DAC4"/>
</linearGradient>
<linearGradient id="paint4_linear" x1="326" y1="88" x2="157" y2="88" gradientUnits="userSpaceOnUse">
<stop stop-color="#CFE3D8"/>
<stop offset="1" stop-color="#B9DAC4"/>
</linearGradient>
<linearGradient id="paint5_linear" x1="442" y1="88" x2="509" y2="88" gradientUnits="userSpaceOnUse">
<stop stop-color="#8C9ABE"/>
<stop offset="1" stop-color="#ACBCE6"/>
</linearGradient>
<linearGradient id="paint6_linear" x1="231" y1="151" x2="6" y2="151" gradientUnits="userSpaceOnUse">
<stop stop-color="#B2CABD"/>
<stop offset="1" stop-color="#CAB9B1"/>
</linearGradient>
<linearGradient id="paint7_linear" x1="408" y1="128" x2="294" y2="128" gradientUnits="userSpaceOnUse">
<stop stop-color="#B2CABD"/>
<stop offset="1" stop-color="#CAB9B1"/>
</linearGradient>
<linearGradient id="paint8_linear" x1="93" y1="128" x2="6" y2="128" gradientUnits="userSpaceOnUse">
<stop stop-color="#B2CABD"/>
<stop offset="1" stop-color="#CAB9B1"/>
</linearGradient>
<linearGradient id="paint9_linear" x1="278" y1="128" x2="109" y2="128" gradientUnits="userSpaceOnUse">
<stop stop-color="#B2CABD"/>
<stop offset="1" stop-color="#CAB9B1"/>
</linearGradient>
<linearGradient id="paint10_linear" x1="442" y1="152" x2="509" y2="152" gradientUnits="userSpaceOnUse">
<stop stop-color="#8C9ABE"/>
<stop offset="1" stop-color="#ACBCE6"/>
</linearGradient>
<linearGradient id="paint11_linear" x1="231" y1="215" x2="6" y2="215" gradientUnits="userSpaceOnUse">
<stop stop-color="#959997"/>
<stop offset="1" stop-color="#B9A8D5"/>
</linearGradient>
<linearGradient id="paint12_linear" x1="408" y1="192" x2="294" y2="192" gradientUnits="userSpaceOnUse">
<stop stop-color="#959997"/>
<stop offset="1" stop-color="#B9A8D5"/>
</linearGradient>
<linearGradient id="paint13_linear" x1="93" y1="192" x2="6" y2="192" gradientUnits="userSpaceOnUse">
<stop stop-color="#959997"/>
<stop offset="1" stop-color="#B9A8D5"/>
</linearGradient>
<linearGradient id="paint14_linear" x1="278" y1="192" x2="109" y2="192" gradientUnits="userSpaceOnUse">
<stop stop-color="#959997"/>
<stop offset="1" stop-color="#B9A8D5"/>
</linearGradient>
<linearGradient id="paint15_linear" x1="442" y1="216" x2="509" y2="216" gradientUnits="userSpaceOnUse">
<stop stop-color="#8C9ABE"/>
<stop offset="1" stop-color="#ACBCE6"/>
</linearGradient>
</defs>
</svg>
