<svg width="593" height="425" viewBox="0 0 593 425" fill="none" xmlns="http://www.w3.org/2000/svg">
<rect width="500" height="250" rx="8" fill="white"/>
<rect y="49.7925" width="489.603" height="58.0913" fill="#F5F5F5"/>
<rect x="5.67108" y="81.9502" width="127.599" height="17.6348" rx="8" fill="url(#paint0_linear)"/>
<rect x="359.168" y="58.0913" width="51.0397" height="17.6349" rx="8" fill="url(#paint1_linear)"/>
<rect x="5.67108" y="58.0913" width="159.735" height="17.6349" rx="8" fill="url(#paint2_linear)"/>
<rect x="182.42" y="58.0913" width="159.735" height="17.6349" rx="8" fill="url(#paint3_linear)"/>
<rect x="148.393" y="82.9876" width="159.735" height="17.6348" rx="8" fill="url(#paint4_linear)"/>
<rect x="417.769" y="82.9876" width="63.327" height="16.5975" rx="8.29875" fill="url(#paint5_linear)"/>
<rect y="116.183" width="489.603" height="58.0913" fill="#F5F5F5"/>
<rect x="5.67108" y="148.34" width="212.665" height="17.6349" rx="8" fill="url(#paint6_linear)"/>
<rect x="277.883" y="124.481" width="107.75" height="17.6349" rx="8" fill="url(#paint7_linear)"/>
<rect x="5.67108" y="124.481" width="82.2306" height="17.6349" rx="8" fill="url(#paint8_linear)"/>
<rect x="103.025" y="124.481" width="159.735" height="17.6349" rx="8" fill="url(#paint9_linear)"/>
<rect x="417.769" y="149.378" width="63.327" height="16.5975" rx="8.29877" fill="url(#paint10_linear)"/>
<rect y="182.573" width="489.603" height="58.0913" fill="#F5F5F5"/>
<rect x="5.67108" y="214.73" width="212.665" height="17.6349" rx="8" fill="url(#paint11_linear)"/>
<rect x="277.883" y="190.871" width="107.75" height="17.6349" rx="8" fill="url(#paint12_linear)"/>
<rect x="5.67108" y="190.871" width="82.2306" height="17.6349" rx="8" fill="url(#paint13_linear)"/>
<rect x="103.025" y="190.871" width="159.735" height="17.6349" rx="8" fill="url(#paint14_linear)"/>
<rect x="417.769" y="215.768" width="63.327" height="16.5975" rx="8.29876" fill="url(#paint15_linear)"/>
<path d="M489.603 36.3071H500V242C500 246.418 496.418 250 492 250H489.603V36.3071Z" fill="#EBE9E9"/>
<path d="M491.493 61.872C491.493 59.784 493.186 58.0913 495.274 58.0913C497.362 58.0913 499.055 59.784 499.055 61.872V71.9454C499.055 74.0335 497.362 75.7261 495.274 75.7261C493.186 75.7261 491.493 74.0335 491.493 71.9454V61.872Z" fill="#C4C4C4"/>
<rect y="36.3071" width="500" height="3.11203" fill="#F3F3F3"/>
<path d="M13.9094 22.3591H9.90155V29.2614H7.63983V12.1989H13.2883C15.2101 12.1989 16.6867 12.6364 17.718 13.5114C18.757 14.3864 19.2766 15.6598 19.2766 17.3317C19.2766 18.3942 18.9875 19.32 18.4094 20.1091C17.8391 20.8981 17.0422 21.488 16.0187 21.8786L20.0266 29.1208V29.2614H17.6125L13.9094 22.3591ZM9.90155 20.5192H13.3586C14.4758 20.5192 15.3625 20.2302 16.0187 19.652C16.6828 19.0739 17.0148 18.3005 17.0148 17.3317C17.0148 16.277 16.6984 15.4684 16.0656 14.9059C15.4406 14.3434 14.5344 14.0583 13.3469 14.0505H9.90155V20.5192ZM27.3625 29.4958C25.6437 29.4958 24.2453 28.9333 23.1672 27.8083C22.0891 26.6755 21.55 25.1638 21.55 23.2731V22.8747C21.55 21.6169 21.7883 20.4958 22.2648 19.5114C22.7492 18.5192 23.4211 17.7458 24.2805 17.1911C25.1476 16.6286 26.0851 16.3473 27.093 16.3473C28.7414 16.3473 30.0226 16.8903 30.9367 17.9763C31.8508 19.0622 32.3078 20.6169 32.3078 22.6403V23.5427H23.718C23.7492 24.7927 24.1125 25.8044 24.8078 26.5778C25.5109 27.3434 26.4016 27.7263 27.4797 27.7263C28.2453 27.7263 28.8937 27.57 29.425 27.2575C29.9562 26.945 30.4211 26.5309 30.8195 26.0153L32.1437 27.0466C31.0812 28.6794 29.4875 29.4958 27.3625 29.4958ZM27.093 18.1286C26.218 18.1286 25.4836 18.4489 24.8898 19.0895C24.2961 19.7223 23.9289 20.613 23.7883 21.7614H30.1398V21.5973C30.0773 20.4958 29.7805 19.6442 29.2492 19.0427C28.718 18.4333 27.9992 18.1286 27.093 18.1286ZM42.2101 25.8981C42.2101 25.3122 41.9875 24.8591 41.5422 24.5388C41.1047 24.2106 40.3351 23.9294 39.2336 23.695C38.1398 23.4606 37.2687 23.1794 36.6203 22.8513C35.9797 22.5231 35.5031 22.1325 35.1906 21.6794C34.8859 21.2263 34.7336 20.6872 34.7336 20.0622C34.7336 19.0231 35.1711 18.1442 36.0461 17.4255C36.9289 16.7067 38.0539 16.3473 39.4211 16.3473C40.8586 16.3473 42.0226 16.7184 42.9133 17.4606C43.8117 18.2028 44.2609 19.152 44.2609 20.3083H42.0812C42.0812 19.7145 41.8273 19.2028 41.3195 18.7731C40.8195 18.3434 40.1867 18.1286 39.4211 18.1286C38.632 18.1286 38.0148 18.3005 37.5695 18.6442C37.1242 18.988 36.9016 19.4372 36.9016 19.9919C36.9016 20.5153 37.1086 20.9098 37.5226 21.1755C37.9367 21.4411 38.6828 21.695 39.7609 21.9372C40.8469 22.1794 41.7258 22.4684 42.3976 22.8044C43.0695 23.1403 43.5656 23.5466 43.8859 24.0231C44.2141 24.4919 44.3781 25.0661 44.3781 25.7458C44.3781 26.8786 43.925 27.7888 43.0187 28.4763C42.1125 29.1559 40.9367 29.4958 39.4914 29.4958C38.4758 29.4958 37.5773 29.3161 36.7961 28.9567C36.0148 28.5973 35.4016 28.0973 34.9562 27.4567C34.5187 26.8083 34.3 26.1091 34.3 25.3591H36.468C36.507 26.0856 36.7961 26.6638 37.3351 27.0934C37.882 27.5153 38.6008 27.7263 39.4914 27.7263C40.3117 27.7263 40.968 27.5622 41.4601 27.2341C41.9601 26.8981 42.2101 26.4528 42.2101 25.8981ZM52.4641 29.4958C50.7453 29.4958 49.3469 28.9333 48.2687 27.8083C47.1906 26.6755 46.6516 25.1638 46.6516 23.2731V22.8747C46.6516 21.6169 46.8898 20.4958 47.3664 19.5114C47.8508 18.5192 48.5226 17.7458 49.382 17.1911C50.2492 16.6286 51.1867 16.3473 52.1945 16.3473C53.843 16.3473 55.1242 16.8903 56.0383 17.9763C56.9523 19.0622 57.4094 20.6169 57.4094 22.6403V23.5427H48.8195C48.8508 24.7927 49.2141 25.8044 49.9094 26.5778C50.6125 27.3434 51.5031 27.7263 52.5812 27.7263C53.3469 27.7263 53.9953 27.57 54.5266 27.2575C55.0578 26.945 55.5226 26.5309 55.9211 26.0153L57.2453 27.0466C56.1828 28.6794 54.5891 29.4958 52.4641 29.4958ZM52.1945 18.1286C51.3195 18.1286 50.5851 18.4489 49.9914 19.0895C49.3976 19.7223 49.0305 20.613 48.8898 21.7614H55.2414V21.5973C55.1789 20.4958 54.882 19.6442 54.3508 19.0427C53.8195 18.4333 53.1008 18.1286 52.1945 18.1286ZM66.0578 18.527C65.7297 18.4723 65.3742 18.445 64.9914 18.445C63.5695 18.445 62.6047 19.0505 62.0969 20.2614V29.2614H59.9289V16.5817H62.0383L62.0734 18.0466C62.7844 16.9138 63.7922 16.3473 65.0969 16.3473C65.5187 16.3473 65.8391 16.402 66.0578 16.5114V18.527ZM72.4562 26.32L75.5969 16.5817H77.8117L73.2648 29.2614H71.6125L67.0187 16.5817H69.2336L72.4562 26.32ZM87.5383 29.2614C87.4133 29.0114 87.3117 28.5661 87.2336 27.9255C86.2258 28.9723 85.0226 29.4958 83.6242 29.4958C82.3742 29.4958 81.3469 29.1442 80.5422 28.4411C79.7453 27.7302 79.3469 26.8317 79.3469 25.7458C79.3469 24.4255 79.8469 23.402 80.8469 22.6755C81.8547 21.9411 83.2687 21.5739 85.0891 21.5739H87.1984V20.5778C87.1984 19.82 86.9719 19.2184 86.5187 18.7731C86.0656 18.32 85.3976 18.0934 84.5148 18.0934C83.7414 18.0934 83.093 18.2888 82.5695 18.6794C82.0461 19.07 81.7844 19.5427 81.7844 20.0973H79.6047C79.6047 19.4645 79.8273 18.8552 80.2726 18.2692C80.7258 17.6755 81.3351 17.2067 82.1008 16.863C82.8742 16.5192 83.7219 16.3473 84.6437 16.3473C86.1047 16.3473 87.2492 16.7145 88.0773 17.4489C88.9055 18.1755 89.3351 19.1794 89.3664 20.4606V26.2966C89.3664 27.4606 89.5148 28.3864 89.8117 29.0739V29.2614H87.5383ZM83.9406 27.6091C84.6203 27.6091 85.2648 27.4333 85.8742 27.0817C86.4836 26.7302 86.925 26.2731 87.1984 25.7106V23.1091H85.4992C82.843 23.1091 81.5148 23.8864 81.5148 25.4411C81.5148 26.1208 81.7414 26.652 82.1945 27.0348C82.6476 27.4177 83.2297 27.6091 83.9406 27.6091ZM95.7062 13.5114V16.5817H98.0734V18.2575H95.7062V26.1208C95.7062 26.6286 95.8117 27.0114 96.0226 27.2692C96.2336 27.5192 96.593 27.6442 97.1008 27.6442C97.3508 27.6442 97.6945 27.5973 98.132 27.5036V29.2614C97.5617 29.4177 97.007 29.4958 96.468 29.4958C95.4992 29.4958 94.7687 29.2028 94.2766 28.6169C93.7844 28.0309 93.5383 27.1989 93.5383 26.1208V18.2575H91.2297V16.5817H93.5383V13.5114H95.7062ZM102.972 29.2614H100.804V16.5817H102.972V29.2614ZM100.628 13.2184C100.628 12.8669 100.734 12.57 100.945 12.3278C101.163 12.0856 101.484 11.9645 101.905 11.9645C102.327 11.9645 102.648 12.0856 102.866 12.3278C103.085 12.57 103.195 12.8669 103.195 13.2184C103.195 13.57 103.085 13.863 102.866 14.0973C102.648 14.3317 102.327 14.4489 101.905 14.4489C101.484 14.4489 101.163 14.3317 100.945 14.0973C100.734 13.863 100.628 13.57 100.628 13.2184ZM105.878 22.8044C105.878 21.5622 106.12 20.445 106.605 19.4528C107.097 18.4606 107.777 17.695 108.644 17.1559C109.519 16.6169 110.515 16.3473 111.632 16.3473C113.359 16.3473 114.753 16.945 115.816 18.1403C116.886 19.3356 117.421 20.9255 117.421 22.9098V23.0622C117.421 24.2966 117.183 25.4059 116.706 26.3903C116.237 27.3669 115.562 28.1286 114.679 28.6755C113.804 29.2223 112.796 29.4958 111.655 29.4958C109.937 29.4958 108.542 28.8981 107.472 27.7028C106.409 26.5075 105.878 24.9255 105.878 22.9567V22.8044ZM108.058 23.0622C108.058 24.4684 108.382 25.5973 109.03 26.4489C109.687 27.3005 110.562 27.7263 111.655 27.7263C112.757 27.7263 113.632 27.2966 114.28 26.4372C114.929 25.57 115.253 24.3591 115.253 22.8044C115.253 21.4138 114.921 20.2888 114.257 19.4294C113.601 18.5622 112.726 18.1286 111.632 18.1286C110.562 18.1286 109.698 18.5544 109.042 19.4059C108.386 20.2575 108.058 21.4763 108.058 23.0622ZM122.191 16.5817L122.261 18.1755C123.23 16.9567 124.495 16.3473 126.058 16.3473C128.737 16.3473 130.089 17.8591 130.112 20.8825V29.2614H127.945V20.8708C127.937 19.9567 127.726 19.2809 127.312 18.8434C126.905 18.4059 126.269 18.1872 125.402 18.1872C124.698 18.1872 124.081 18.3747 123.55 18.7497C123.019 19.1247 122.605 19.6169 122.308 20.2263V29.2614H120.14V16.5817H122.191ZM140.765 25.8981C140.765 25.3122 140.542 24.8591 140.097 24.5388C139.659 24.2106 138.89 23.9294 137.788 23.695C136.695 23.4606 135.823 23.1794 135.175 22.8513C134.534 22.5231 134.058 22.1325 133.745 21.6794C133.441 21.2263 133.288 20.6872 133.288 20.0622C133.288 19.0231 133.726 18.1442 134.601 17.4255C135.484 16.7067 136.609 16.3473 137.976 16.3473C139.413 16.3473 140.577 16.7184 141.468 17.4606C142.366 18.2028 142.816 19.152 142.816 20.3083H140.636C140.636 19.7145 140.382 19.2028 139.874 18.7731C139.374 18.3434 138.741 18.1286 137.976 18.1286C137.187 18.1286 136.57 18.3005 136.124 18.6442C135.679 18.988 135.456 19.4372 135.456 19.9919C135.456 20.5153 135.663 20.9098 136.077 21.1755C136.491 21.4411 137.237 21.695 138.316 21.9372C139.402 22.1794 140.28 22.4684 140.952 22.8044C141.624 23.1403 142.12 23.5466 142.441 24.0231C142.769 24.4919 142.933 25.0661 142.933 25.7458C142.933 26.8786 142.48 27.7888 141.573 28.4763C140.667 29.1559 139.491 29.4958 138.046 29.4958C137.03 29.4958 136.132 29.3161 135.351 28.9567C134.57 28.5973 133.956 28.0973 133.511 27.4567C133.073 26.8083 132.855 26.1091 132.855 25.3591H135.023C135.062 26.0856 135.351 26.6638 135.89 27.0934C136.437 27.5153 137.155 27.7263 138.046 27.7263C138.866 27.7263 139.523 27.5622 140.015 27.2341C140.515 26.8981 140.765 26.4528 140.765 25.8981Z" fill="#B5B2B2"/>
<g filter="url(#filter0_d)">
<path d="M339 125C339 120.582 342.582 117 347 117H581C585.418 117 589 120.582 589 125V409C589 413.418 585.418 417 581 417H347C342.582 417 339 413.418 339 409V125Z" fill="white"/>
<rect x="488" y="377" width="91" height="28" rx="8" fill="url(#paint16_linear)"/>
<path d="M518.342 392.92C518.342 394.003 517.908 394.829 517.04 395.398C516.293 395.893 515.355 396.14 514.226 396.14C513.544 396.14 512.784 395.981 511.944 395.664L511.958 393.438H512.378C512.434 394.175 512.653 394.707 513.036 395.034C513.213 395.183 513.474 395.309 513.82 395.412C514.165 395.515 514.478 395.561 514.758 395.552C515.402 395.543 515.966 395.37 516.452 395.034C516.928 394.689 517.175 394.227 517.194 393.648C517.194 393.041 516.979 392.556 516.55 392.192C516.13 391.828 515.546 391.604 514.8 391.52C512.812 391.277 511.818 390.447 511.818 389.028C511.818 388.039 512.196 387.287 512.952 386.774C513.596 386.326 514.38 386.102 515.304 386.102C515.574 386.102 515.896 386.144 516.27 386.228C516.643 386.303 516.881 386.34 516.984 386.34C517.096 386.34 517.17 386.27 517.208 386.13H517.6V388.636H517.18C517.114 387.945 516.904 387.446 516.55 387.138C516.204 386.83 515.686 386.681 514.996 386.69C513.633 386.709 512.961 387.32 512.98 388.524C512.998 389.597 513.745 390.209 515.22 390.358C517.301 390.582 518.342 391.436 518.342 392.92ZM526.668 395.622V396.014H524.428L524.414 394.88C523.835 395.748 523.009 396.182 521.936 396.182C521.086 396.182 520.526 395.93 520.256 395.426C520.097 395.137 520.018 394.605 520.018 393.83V390.456C519.99 390.139 519.831 389.98 519.542 389.98H518.884V389.602H521.166V393.69C521.166 394.278 521.264 394.703 521.46 394.964C521.665 395.216 522.057 395.342 522.636 395.342C523.046 395.342 523.438 395.165 523.812 394.81C524.185 394.437 524.372 394.087 524.372 393.76V390.456C524.353 390.139 524.185 389.98 523.868 389.98H523.224V389.602H525.506V395.314C525.506 395.417 525.543 395.496 525.618 395.552C525.702 395.599 525.781 395.622 525.856 395.622H526.668ZM529.181 386.158V390.638C529.33 390.377 529.559 390.134 529.867 389.91C530.38 389.481 531.001 389.266 531.729 389.266C532.457 389.266 533.045 389.551 533.493 390.12C533.941 390.633 534.165 391.296 534.165 392.108C534.165 393.135 533.796 394.063 533.059 394.894C532.322 395.715 531.44 396.126 530.413 396.126C529.741 396.126 529.172 395.958 528.705 395.622L528.201 396.126H528.019V387.04C528.01 386.713 527.846 386.55 527.529 386.55H526.871V386.158H529.181ZM530.903 395.412C531.491 395.375 531.976 395.099 532.359 394.586C532.751 394.073 532.947 393.443 532.947 392.696C532.947 391.949 532.798 391.357 532.499 390.918C532.144 390.423 531.654 390.176 531.029 390.176C530.544 390.176 530.1 390.344 529.699 390.68C529.354 390.997 529.181 391.277 529.181 391.52V394.656C529.181 394.824 529.354 394.997 529.699 395.174C530.044 395.342 530.446 395.421 530.903 395.412ZM546.665 395.622V396H543.263V395.622H544.089C544.266 395.622 544.383 395.515 544.439 395.3V391.996C544.439 391.501 544.327 391.095 544.103 390.778C543.879 390.451 543.566 390.288 543.165 390.288C542.764 390.288 542.381 390.442 542.017 390.75C541.653 391.039 541.471 391.31 541.471 391.562L541.457 395.3C541.504 395.515 541.611 395.622 541.779 395.622H542.591V396H539.203V395.622H540.001C540.178 395.622 540.29 395.515 540.337 395.3V391.996C540.337 391.52 540.23 391.123 540.015 390.806C539.8 390.461 539.483 390.288 539.063 390.288C538.652 390.288 538.27 390.433 537.915 390.722C537.57 391.002 537.397 391.282 537.397 391.562V395.3C537.425 395.515 537.528 395.622 537.705 395.622H538.517V396H535.115V395.622H535.927C536.104 395.622 536.207 395.515 536.235 395.3V390.47C536.226 390.153 536.062 389.994 535.745 389.994H535.101V389.602H537.397V390.666C537.584 390.33 537.831 390.064 538.139 389.868C538.55 389.588 539.007 389.448 539.511 389.448C540.398 389.448 541.023 389.873 541.387 390.722C541.938 389.873 542.68 389.448 543.613 389.448C544.182 389.448 544.649 389.649 545.013 390.05C545.386 390.442 545.573 390.974 545.573 391.646L545.559 395.3C545.578 395.515 545.676 395.622 545.853 395.622H546.665ZM549.099 386.676C549.304 386.676 549.477 386.746 549.617 386.886C549.766 387.026 549.841 387.203 549.841 387.418C549.85 387.623 549.776 387.801 549.617 387.95C549.458 388.099 549.281 388.174 549.085 388.174C548.889 388.174 548.712 388.099 548.553 387.95C548.404 387.801 548.329 387.633 548.329 387.446C548.329 387.25 548.404 387.073 548.553 386.914C548.712 386.755 548.894 386.676 549.099 386.676ZM549.729 389.616V395.3C549.729 395.515 549.832 395.622 550.037 395.622H550.849V396H547.461V395.622H548.273C548.478 395.622 548.581 395.515 548.581 395.3V390.316C548.553 390.101 548.45 389.994 548.273 389.994H547.461V389.616H549.729ZM552.868 388.426H553.582V390.148L555.332 390.12L555.304 390.764H553.582V394.376C553.582 395.001 553.824 395.314 554.31 395.314C554.524 395.314 554.79 395.23 555.108 395.062L555.206 395.216C554.888 395.86 554.403 396.182 553.75 396.182C552.854 396.163 552.406 395.673 552.406 394.712V390.764L551.356 390.792V390.414C551.421 390.395 551.51 390.372 551.622 390.344C552.051 390.241 552.364 390.041 552.56 389.742C552.756 389.434 552.858 388.995 552.868 388.426Z" fill="white"/>
<rect x="375" y="172" width="180" height="90" rx="8" fill="#F0F0F0"/>
<rect x="380" y="177" width="170" height="80" fill="white"/>
<path d="M393.717 184.514C392.833 184.26 392.188 183.948 391.784 183.58C391.383 183.207 391.182 182.749 391.182 182.205C391.182 181.589 391.427 181.08 391.918 180.679C392.412 180.275 393.053 180.072 393.841 180.072C394.378 180.072 394.856 180.176 395.275 180.384C395.697 180.591 396.023 180.878 396.252 181.243C396.485 181.608 396.601 182.008 396.601 182.441H395.565C395.565 181.968 395.414 181.598 395.114 181.329C394.813 181.057 394.389 180.921 393.841 180.921C393.332 180.921 392.935 181.034 392.648 181.259C392.365 181.481 392.224 181.791 392.224 182.188C392.224 182.507 392.358 182.778 392.627 183C392.899 183.218 393.359 183.418 394.007 183.601C394.659 183.784 395.167 183.986 395.533 184.208C395.901 184.426 396.174 184.682 396.349 184.976C396.528 185.27 396.618 185.615 396.618 186.013C396.618 186.646 396.371 187.155 395.876 187.538C395.382 187.918 394.722 188.107 393.894 188.107C393.357 188.107 392.856 188.005 392.391 187.801C391.925 187.594 391.565 187.311 391.311 186.953C391.06 186.595 390.935 186.188 390.935 185.733H391.972C391.972 186.206 392.145 186.58 392.493 186.856C392.844 187.128 393.311 187.264 393.894 187.264C394.439 187.264 394.856 187.153 395.146 186.931C395.436 186.709 395.581 186.407 395.581 186.023C395.581 185.64 395.447 185.345 395.178 185.137C394.91 184.926 394.423 184.718 393.717 184.514ZM415.645 180.18L418.201 186.561L420.758 180.18H422.095V188H421.064V184.955L421.161 181.667L418.594 188H417.804L415.242 181.684L415.344 184.955V188H414.313V180.18H415.645ZM445.473 181.028H442.96V188H441.934V181.028H439.425V180.18H445.473V181.028ZM464.474 185.535L464.624 186.566L464.844 185.637L466.391 180.18H467.261L468.771 185.637L468.985 186.582L469.152 185.529L470.366 180.18H471.402L469.506 188H468.566L466.955 182.301L466.832 181.705L466.708 182.301L465.038 188H464.098L462.207 180.18H463.238L464.474 185.535ZM494.109 181.028H491.595V188H490.569V181.028H488.061V180.18H494.109V181.028ZM515.736 184.546H512.454V188H511.423V180.18H516.267V181.028H512.454V183.703H515.736V184.546ZM536.175 184.514C535.291 184.26 534.646 183.948 534.242 183.58C533.841 183.207 533.64 182.749 533.64 182.205C533.64 181.589 533.885 181.08 534.376 180.679C534.87 180.275 535.511 180.072 536.299 180.072C536.836 180.072 537.314 180.176 537.733 180.384C538.156 180.591 538.481 180.878 538.711 181.243C538.943 181.608 539.06 182.008 539.06 182.441H538.023C538.023 181.968 537.873 181.598 537.572 181.329C537.271 181.057 536.847 180.921 536.299 180.921C535.79 180.921 535.393 181.034 535.107 181.259C534.824 181.481 534.682 181.791 534.682 182.188C534.682 182.507 534.816 182.778 535.085 183C535.357 183.218 535.817 183.418 536.465 183.601C537.117 183.784 537.626 183.986 537.991 184.208C538.36 184.426 538.632 184.682 538.807 184.976C538.986 185.27 539.076 185.615 539.076 186.013C539.076 186.646 538.829 187.155 538.335 187.538C537.84 187.918 537.18 188.107 536.353 188.107C535.816 188.107 535.314 188.005 534.849 187.801C534.383 187.594 534.023 187.311 533.769 186.953C533.518 186.595 533.393 186.188 533.393 185.733H534.43C534.43 186.206 534.603 186.58 534.951 186.856C535.302 187.128 535.769 187.264 536.353 187.264C536.897 187.264 537.314 187.153 537.604 186.931C537.894 186.709 538.039 186.407 538.039 186.023C538.039 185.64 537.905 185.345 537.636 185.137C537.368 184.926 536.881 184.718 536.175 184.514Z" fill="black"/>
<line x1="405.5" y1="177" x2="405.5" y2="257" stroke="black"/>
<line x1="380" y1="191.5" x2="550" y2="191.5" stroke="black"/>
<line x1="380" y1="216.5" x2="550" y2="216.5" stroke="black"/>
<line x1="380" y1="237.5" x2="550" y2="237.5" stroke="black"/>
<line x1="431.5" y1="177" x2="431.5" y2="257" stroke="black"/>
<line x1="454.5" y1="177" x2="454.5" y2="257" stroke="black"/>
<line x1="523.5" y1="177" x2="523.5" y2="257" stroke="black"/>
<line x1="477.5" y1="177" x2="477.5" y2="257" stroke="black"/>
<line x1="500.5" y1="177" x2="500.5" y2="257" stroke="black"/>
<rect x="380" y="199" width="134" height="10" rx="5" fill="url(#paint17_linear)"/>
<circle cx="419" cy="204" r="5" fill="#FF0000"/>
<rect x="339" y="146.046" width="250" height="3.11203" fill="#F3F3F3"/>
<path d="M403.516 135.098H399.508V142H397.246V124.938H402.895C404.816 124.938 406.293 125.375 407.324 126.25C408.363 127.125 408.883 128.398 408.883 130.07C408.883 131.133 408.594 132.059 408.016 132.848C407.445 133.637 406.648 134.227 405.625 134.617L409.633 141.859V142H407.219L403.516 135.098ZM399.508 133.258H402.965C404.082 133.258 404.969 132.969 405.625 132.391C406.289 131.812 406.621 131.039 406.621 130.07C406.621 129.016 406.305 128.207 405.672 127.645C405.047 127.082 404.141 126.797 402.953 126.789H399.508V133.258ZM416.969 142.234C415.25 142.234 413.852 141.672 412.773 140.547C411.695 139.414 411.156 137.902 411.156 136.012V135.613C411.156 134.355 411.395 133.234 411.871 132.25C412.355 131.258 413.027 130.484 413.887 129.93C414.754 129.367 415.691 129.086 416.699 129.086C418.348 129.086 419.629 129.629 420.543 130.715C421.457 131.801 421.914 133.355 421.914 135.379V136.281H413.324C413.355 137.531 413.719 138.543 414.414 139.316C415.117 140.082 416.008 140.465 417.086 140.465C417.852 140.465 418.5 140.309 419.031 139.996C419.562 139.684 420.027 139.27 420.426 138.754L421.75 139.785C420.688 141.418 419.094 142.234 416.969 142.234ZM416.699 130.867C415.824 130.867 415.09 131.188 414.496 131.828C413.902 132.461 413.535 133.352 413.395 134.5H419.746V134.336C419.684 133.234 419.387 132.383 418.855 131.781C418.324 131.172 417.605 130.867 416.699 130.867ZM431.816 138.637C431.816 138.051 431.594 137.598 431.148 137.277C430.711 136.949 429.941 136.668 428.84 136.434C427.746 136.199 426.875 135.918 426.227 135.59C425.586 135.262 425.109 134.871 424.797 134.418C424.492 133.965 424.34 133.426 424.34 132.801C424.34 131.762 424.777 130.883 425.652 130.164C426.535 129.445 427.66 129.086 429.027 129.086C430.465 129.086 431.629 129.457 432.52 130.199C433.418 130.941 433.867 131.891 433.867 133.047H431.688C431.688 132.453 431.434 131.941 430.926 131.512C430.426 131.082 429.793 130.867 429.027 130.867C428.238 130.867 427.621 131.039 427.176 131.383C426.73 131.727 426.508 132.176 426.508 132.73C426.508 133.254 426.715 133.648 427.129 133.914C427.543 134.18 428.289 134.434 429.367 134.676C430.453 134.918 431.332 135.207 432.004 135.543C432.676 135.879 433.172 136.285 433.492 136.762C433.82 137.23 433.984 137.805 433.984 138.484C433.984 139.617 433.531 140.527 432.625 141.215C431.719 141.895 430.543 142.234 429.098 142.234C428.082 142.234 427.184 142.055 426.402 141.695C425.621 141.336 425.008 140.836 424.562 140.195C424.125 139.547 423.906 138.848 423.906 138.098H426.074C426.113 138.824 426.402 139.402 426.941 139.832C427.488 140.254 428.207 140.465 429.098 140.465C429.918 140.465 430.574 140.301 431.066 139.973C431.566 139.637 431.816 139.191 431.816 138.637ZM442.07 142.234C440.352 142.234 438.953 141.672 437.875 140.547C436.797 139.414 436.258 137.902 436.258 136.012V135.613C436.258 134.355 436.496 133.234 436.973 132.25C437.457 131.258 438.129 130.484 438.988 129.93C439.855 129.367 440.793 129.086 441.801 129.086C443.449 129.086 444.73 129.629 445.645 130.715C446.559 131.801 447.016 133.355 447.016 135.379V136.281H438.426C438.457 137.531 438.82 138.543 439.516 139.316C440.219 140.082 441.109 140.465 442.188 140.465C442.953 140.465 443.602 140.309 444.133 139.996C444.664 139.684 445.129 139.27 445.527 138.754L446.852 139.785C445.789 141.418 444.195 142.234 442.07 142.234ZM441.801 130.867C440.926 130.867 440.191 131.188 439.598 131.828C439.004 132.461 438.637 133.352 438.496 134.5H444.848V134.336C444.785 133.234 444.488 132.383 443.957 131.781C443.426 131.172 442.707 130.867 441.801 130.867ZM455.664 131.266C455.336 131.211 454.98 131.184 454.598 131.184C453.176 131.184 452.211 131.789 451.703 133V142H449.535V129.32H451.645L451.68 130.785C452.391 129.652 453.398 129.086 454.703 129.086C455.125 129.086 455.445 129.141 455.664 129.25V131.266ZM462.062 139.059L465.203 129.32H467.418L462.871 142H461.219L456.625 129.32H458.84L462.062 139.059ZM477.145 142C477.02 141.75 476.918 141.305 476.84 140.664C475.832 141.711 474.629 142.234 473.23 142.234C471.98 142.234 470.953 141.883 470.148 141.18C469.352 140.469 468.953 139.57 468.953 138.484C468.953 137.164 469.453 136.141 470.453 135.414C471.461 134.68 472.875 134.312 474.695 134.312H476.805V133.316C476.805 132.559 476.578 131.957 476.125 131.512C475.672 131.059 475.004 130.832 474.121 130.832C473.348 130.832 472.699 131.027 472.176 131.418C471.652 131.809 471.391 132.281 471.391 132.836H469.211C469.211 132.203 469.434 131.594 469.879 131.008C470.332 130.414 470.941 129.945 471.707 129.602C472.48 129.258 473.328 129.086 474.25 129.086C475.711 129.086 476.855 129.453 477.684 130.188C478.512 130.914 478.941 131.918 478.973 133.199V139.035C478.973 140.199 479.121 141.125 479.418 141.812V142H477.145ZM473.547 140.348C474.227 140.348 474.871 140.172 475.48 139.82C476.09 139.469 476.531 139.012 476.805 138.449V135.848H475.105C472.449 135.848 471.121 136.625 471.121 138.18C471.121 138.859 471.348 139.391 471.801 139.773C472.254 140.156 472.836 140.348 473.547 140.348ZM485.312 126.25V129.32H487.68V130.996H485.312V138.859C485.312 139.367 485.418 139.75 485.629 140.008C485.84 140.258 486.199 140.383 486.707 140.383C486.957 140.383 487.301 140.336 487.738 140.242V142C487.168 142.156 486.613 142.234 486.074 142.234C485.105 142.234 484.375 141.941 483.883 141.355C483.391 140.77 483.145 139.938 483.145 138.859V130.996H480.836V129.32H483.145V126.25H485.312ZM492.578 142H490.41V129.32H492.578V142ZM490.234 125.957C490.234 125.605 490.34 125.309 490.551 125.066C490.77 124.824 491.09 124.703 491.512 124.703C491.934 124.703 492.254 124.824 492.473 125.066C492.691 125.309 492.801 125.605 492.801 125.957C492.801 126.309 492.691 126.602 492.473 126.836C492.254 127.07 491.934 127.188 491.512 127.188C491.09 127.188 490.77 127.07 490.551 126.836C490.34 126.602 490.234 126.309 490.234 125.957ZM495.484 135.543C495.484 134.301 495.727 133.184 496.211 132.191C496.703 131.199 497.383 130.434 498.25 129.895C499.125 129.355 500.121 129.086 501.238 129.086C502.965 129.086 504.359 129.684 505.422 130.879C506.492 132.074 507.027 133.664 507.027 135.648V135.801C507.027 137.035 506.789 138.145 506.312 139.129C505.844 140.105 505.168 140.867 504.285 141.414C503.41 141.961 502.402 142.234 501.262 142.234C499.543 142.234 498.148 141.637 497.078 140.441C496.016 139.246 495.484 137.664 495.484 135.695V135.543ZM497.664 135.801C497.664 137.207 497.988 138.336 498.637 139.188C499.293 140.039 500.168 140.465 501.262 140.465C502.363 140.465 503.238 140.035 503.887 139.176C504.535 138.309 504.859 137.098 504.859 135.543C504.859 134.152 504.527 133.027 503.863 132.168C503.207 131.301 502.332 130.867 501.238 130.867C500.168 130.867 499.305 131.293 498.648 132.145C497.992 132.996 497.664 134.215 497.664 135.801ZM511.797 129.32L511.867 130.914C512.836 129.695 514.102 129.086 515.664 129.086C518.344 129.086 519.695 130.598 519.719 133.621V142H517.551V133.609C517.543 132.695 517.332 132.02 516.918 131.582C516.512 131.145 515.875 130.926 515.008 130.926C514.305 130.926 513.688 131.113 513.156 131.488C512.625 131.863 512.211 132.355 511.914 132.965V142H509.746V129.32H511.797ZM530.371 138.637C530.371 138.051 530.148 137.598 529.703 137.277C529.266 136.949 528.496 136.668 527.395 136.434C526.301 136.199 525.43 135.918 524.781 135.59C524.141 135.262 523.664 134.871 523.352 134.418C523.047 133.965 522.895 133.426 522.895 132.801C522.895 131.762 523.332 130.883 524.207 130.164C525.09 129.445 526.215 129.086 527.582 129.086C529.02 129.086 530.184 129.457 531.074 130.199C531.973 130.941 532.422 131.891 532.422 133.047H530.242C530.242 132.453 529.988 131.941 529.48 131.512C528.98 131.082 528.348 130.867 527.582 130.867C526.793 130.867 526.176 131.039 525.73 131.383C525.285 131.727 525.062 132.176 525.062 132.73C525.062 133.254 525.27 133.648 525.684 133.914C526.098 134.18 526.844 134.434 527.922 134.676C529.008 134.918 529.887 135.207 530.559 135.543C531.23 135.879 531.727 136.285 532.047 136.762C532.375 137.23 532.539 137.805 532.539 138.484C532.539 139.617 532.086 140.527 531.18 141.215C530.273 141.895 529.098 142.234 527.652 142.234C526.637 142.234 525.738 142.055 524.957 141.695C524.176 141.336 523.562 140.836 523.117 140.195C522.68 139.547 522.461 138.848 522.461 138.098H524.629C524.668 138.824 524.957 139.402 525.496 139.832C526.043 140.254 526.762 140.465 527.652 140.465C528.473 140.465 529.129 140.301 529.621 139.973C530.121 139.637 530.371 139.191 530.371 138.637Z" fill="#B5B2B2"/>
<rect x="354" y="292" width="217" height="10" rx="5" fill="url(#paint18_linear)"/>
<rect x="355" y="315" width="50" height="10" rx="5" fill="url(#paint19_linear)"/>
<rect x="534" y="338" width="27" height="10" rx="5" fill="url(#paint20_linear)"/>
<rect x="419" y="315" width="152" height="10" rx="5" fill="url(#paint21_linear)"/>
<rect x="355" y="338" width="168" height="10" rx="5" fill="url(#paint22_linear)"/>
</g>
<g filter="url(#filter1_d)">
<rect x="49" y="276" width="331" height="62" rx="8" fill="white"/>
<rect x="57" y="284" width="99" height="10" rx="5" fill="url(#paint23_linear)"/>
<rect x="162" y="284" width="186" height="10" rx="5" fill="url(#paint24_linear)"/>
<rect x="57" y="302" width="137" height="10" rx="5" fill="url(#paint25_linear)"/>
<rect x="202" y="302" width="137" height="10" rx="5" fill="url(#paint26_linear)"/>
<rect x="323" y="316" width="50" height="15" rx="7.5" fill="url(#paint27_linear)"/>
<rect x="264" y="316" width="50" height="15" rx="7.5" fill="url(#paint28_linear)"/>
</g>
<defs>
<filter id="filter0_d" x="335" y="117" width="258" height="308" filterUnits="userSpaceOnUse" color-interpolation-filters="sRGB">
<feFlood flood-opacity="0" result="BackgroundImageFix"/>
<feColorMatrix in="SourceAlpha" type="matrix" values="0 0 0 0 0 0 0 0 0 0 0 0 0 0 0 0 0 0 127 0" result="hardAlpha"/>
<feOffset dy="4"/>
<feGaussianBlur stdDeviation="2"/>
<feComposite in2="hardAlpha" operator="out"/>
<feColorMatrix type="matrix" values="0 0 0 0 0 0 0 0 0 0 0 0 0 0 0 0 0 0 0.25 0"/>
<feBlend mode="normal" in2="BackgroundImageFix" result="effect1_dropShadow"/>
<feBlend mode="normal" in="SourceGraphic" in2="effect1_dropShadow" result="shape"/>
</filter>
<filter id="filter1_d" x="45" y="276" width="339" height="70" filterUnits="userSpaceOnUse" color-interpolation-filters="sRGB">
<feFlood flood-opacity="0" result="BackgroundImageFix"/>
<feColorMatrix in="SourceAlpha" type="matrix" values="0 0 0 0 0 0 0 0 0 0 0 0 0 0 0 0 0 0 127 0" result="hardAlpha"/>
<feOffset dy="4"/>
<feGaussianBlur stdDeviation="2"/>
<feComposite in2="hardAlpha" operator="out"/>
<feColorMatrix type="matrix" values="0 0 0 0 0 0 0 0 0 0 0 0 0 0 0 0 0 0 0.25 0"/>
<feBlend mode="normal" in2="BackgroundImageFix" result="effect1_dropShadow"/>
<feBlend mode="normal" in="SourceGraphic" in2="effect1_dropShadow" result="shape"/>
</filter>
<linearGradient id="paint0_linear" x1="133.27" y1="90.2489" x2="5.67108" y2="90.2489" gradientUnits="userSpaceOnUse">
<stop stop-color="#CFE3D8"/>
<stop offset="1" stop-color="#B9DAC4"/>
</linearGradient>
<linearGradient id="paint1_linear" x1="410.208" y1="66.39" x2="359.168" y2="66.39" gradientUnits="userSpaceOnUse">
<stop stop-color="#CFE3D8"/>
<stop offset="1" stop-color="#B9DAC4"/>
</linearGradient>
<linearGradient id="paint2_linear" x1="165.406" y1="66.39" x2="5.67108" y2="66.39" gradientUnits="userSpaceOnUse">
<stop stop-color="#CFE3D8"/>
<stop offset="1" stop-color="#B9DAC4"/>
</linearGradient>
<linearGradient id="paint3_linear" x1="342.155" y1="66.39" x2="182.42" y2="66.39" gradientUnits="userSpaceOnUse">
<stop stop-color="#CFE3D8"/>
<stop offset="1" stop-color="#B9DAC4"/>
</linearGradient>
<linearGradient id="paint4_linear" x1="308.129" y1="91.2863" x2="148.393" y2="91.2863" gradientUnits="userSpaceOnUse">
<stop stop-color="#CFE3D8"/>
<stop offset="1" stop-color="#B9DAC4"/>
</linearGradient>
<linearGradient id="paint5_linear" x1="417.769" y1="91.2863" x2="481.096" y2="91.2863" gradientUnits="userSpaceOnUse">
<stop stop-color="#8C9ABE"/>
<stop offset="1" stop-color="#ACBCE6"/>
</linearGradient>
<linearGradient id="paint6_linear" x1="218.336" y1="156.639" x2="5.67108" y2="156.639" gradientUnits="userSpaceOnUse">
<stop stop-color="#B2CABD"/>
<stop offset="1" stop-color="#CAB9B1"/>
</linearGradient>
<linearGradient id="paint7_linear" x1="385.633" y1="132.78" x2="277.883" y2="132.78" gradientUnits="userSpaceOnUse">
<stop stop-color="#B2CABD"/>
<stop offset="1" stop-color="#CAB9B1"/>
</linearGradient>
<linearGradient id="paint8_linear" x1="87.9017" y1="132.78" x2="5.67108" y2="132.78" gradientUnits="userSpaceOnUse">
<stop stop-color="#B2CABD"/>
<stop offset="1" stop-color="#CAB9B1"/>
</linearGradient>
<linearGradient id="paint9_linear" x1="262.76" y1="132.78" x2="103.025" y2="132.78" gradientUnits="userSpaceOnUse">
<stop stop-color="#B2CABD"/>
<stop offset="1" stop-color="#CAB9B1"/>
</linearGradient>
<linearGradient id="paint10_linear" x1="417.769" y1="157.676" x2="481.096" y2="157.676" gradientUnits="userSpaceOnUse">
<stop stop-color="#8C9ABE"/>
<stop offset="1" stop-color="#ACBCE6"/>
</linearGradient>
<linearGradient id="paint11_linear" x1="218.336" y1="223.029" x2="5.67108" y2="223.029" gradientUnits="userSpaceOnUse">
<stop stop-color="#959997"/>
<stop offset="1" stop-color="#B9A8D5"/>
</linearGradient>
<linearGradient id="paint12_linear" x1="385.633" y1="199.17" x2="277.883" y2="199.17" gradientUnits="userSpaceOnUse">
<stop stop-color="#959997"/>
<stop offset="1" stop-color="#B9A8D5"/>
</linearGradient>
<linearGradient id="paint13_linear" x1="87.9017" y1="199.17" x2="5.67108" y2="199.17" gradientUnits="userSpaceOnUse">
<stop stop-color="#959997"/>
<stop offset="1" stop-color="#B9A8D5"/>
</linearGradient>
<linearGradient id="paint14_linear" x1="262.76" y1="199.17" x2="103.025" y2="199.17" gradientUnits="userSpaceOnUse">
<stop stop-color="#959997"/>
<stop offset="1" stop-color="#B9A8D5"/>
</linearGradient>
<linearGradient id="paint15_linear" x1="417.769" y1="224.066" x2="481.096" y2="224.066" gradientUnits="userSpaceOnUse">
<stop stop-color="#8C9ABE"/>
<stop offset="1" stop-color="#ACBCE6"/>
</linearGradient>
<linearGradient id="paint16_linear" x1="579" y1="391.122" x2="488" y2="391.122" gradientUnits="userSpaceOnUse">
<stop stop-color="#37456A"/>
<stop offset="1" stop-color="#6A7CA8"/>
</linearGradient>
<linearGradient id="paint17_linear" x1="380" y1="204" x2="521" y2="204" gradientUnits="userSpaceOnUse">
<stop stop-color="#719879"/>
<stop offset="1" stop-color="#A8D6AA"/>
</linearGradient>
<linearGradient id="paint18_linear" x1="354" y1="297" x2="577.5" y2="297" gradientUnits="userSpaceOnUse">
<stop stop-color="#9B9A9A"/>
<stop offset="1" stop-color="#DADADA"/>
</linearGradient>
<linearGradient id="paint19_linear" x1="355" y1="320" x2="406.498" y2="320" gradientUnits="userSpaceOnUse">
<stop stop-color="#9B9A9A"/>
<stop offset="1" stop-color="#DADADA"/>
</linearGradient>
<linearGradient id="paint20_linear" x1="534" y1="343" x2="561.809" y2="343" gradientUnits="userSpaceOnUse">
<stop stop-color="#9B9A9A"/>
<stop offset="1" stop-color="#DADADA"/>
</linearGradient>
<linearGradient id="paint21_linear" x1="419" y1="320" x2="575.553" y2="320" gradientUnits="userSpaceOnUse">
<stop stop-color="#9B9A9A"/>
<stop offset="1" stop-color="#DADADA"/>
</linearGradient>
<linearGradient id="paint22_linear" x1="355" y1="343" x2="528.032" y2="343" gradientUnits="userSpaceOnUse">
<stop stop-color="#9B9A9A"/>
<stop offset="1" stop-color="#DADADA"/>
</linearGradient>
<linearGradient id="paint23_linear" x1="57" y1="289" x2="158.965" y2="289" gradientUnits="userSpaceOnUse">
<stop stop-color="#9B9A9A"/>
<stop offset="1" stop-color="#DADADA"/>
</linearGradient>
<linearGradient id="paint24_linear" x1="162" y1="289" x2="353.571" y2="289" gradientUnits="userSpaceOnUse">
<stop stop-color="#9B9A9A"/>
<stop offset="1" stop-color="#DADADA"/>
</linearGradient>
<linearGradient id="paint25_linear" x1="57" y1="307" x2="198.104" y2="307" gradientUnits="userSpaceOnUse">
<stop stop-color="#9B9A9A"/>
<stop offset="1" stop-color="#DADADA"/>
</linearGradient>
<linearGradient id="paint26_linear" x1="202" y1="307" x2="343.104" y2="307" gradientUnits="userSpaceOnUse">
<stop stop-color="#9B9A9A"/>
<stop offset="1" stop-color="#DADADA"/>
</linearGradient>
<linearGradient id="paint27_linear" x1="373" y1="323.565" x2="323" y2="323.565" gradientUnits="userSpaceOnUse">
<stop stop-color="#37456A"/>
<stop offset="1" stop-color="#6A7CA8"/>
</linearGradient>
<linearGradient id="paint28_linear" x1="314" y1="323.565" x2="264" y2="323.565" gradientUnits="userSpaceOnUse">
<stop stop-color="#DF4646"/>
<stop offset="1" stop-color="#925454"/>
</linearGradient>
</defs>
</svg>
